<?xml version="1.0" standalone="no"?>
<!DOCTYPE svg PUBLIC "-//W3C//DTD SVG 20010904//EN"
 "http://www.w3.org/TR/2001/REC-SVG-20010904/DTD/svg10.dtd">
<svg version="1.0" xmlns="http://www.w3.org/2000/svg"
 width="200.000000pt" height="200.000000pt" viewBox="0 0 200.000000 200.000000"
 preserveAspectRatio="xMidYMid meet">

<g transform="translate(0.000000,200.000000) scale(0.100000,-0.100000)"
fill="#000000" stroke="none">
<path d="M596 1865 c-195 -40 -340 -120 -396 -219 -160 -277 366 -523 855
-400 80 20 210 84 262 128 45 39 93 125 93 165 0 60 -22 105 -80 163 -67 67
-161 116 -285 149 -104 28 -346 35 -449 14z"/>
<path d="M1359 1339 c-131 -128 -419 -206 -671 -180 -203 21 -361 79 -462 172
l-56 51 0 -123 c0 -119 1 -126 30 -175 47 -83 155 -151 317 -201 82 -25 101
-27 268 -27 155 0 191 3 260 22 126 35 218 83 285 150 72 72 82 104 78 249
l-3 108 -46 -46z m-131 -243 c6 -29 -15 -43 -35 -24 -14 14 -14 20 -3 33 16
19 34 15 38 -9z m-104 -35 c10 -16 -5 -41 -25 -41 -19 0 -27 29 -12 43 9 10
31 9 37 -2z m-119 -46 c0 -13 -8 -21 -22 -23 -19 -3 -23 1 -23 23 0 22 4 26
23 23 14 -2 22 -10 22 -23z"/>
<path d="M160 925 c0 -137 13 -185 66 -244 113 -125 303 -193 549 -195 171 -1
185 3 185 53 l0 38 59 13 c76 16 83 35 40 104 l-30 49 46 47 47 48 -78 -21
c-65 -16 -110 -20 -254 -20 -157 0 -185 3 -275 26 -129 34 -229 84 -296 147
-29 27 -55 50 -56 50 -2 0 -3 -43 -3 -95z m845 -280 c0 -13 -8 -21 -22 -23
-17 -3 -23 2 -23 16 0 10 3 22 7 26 13 13 38 1 38 -19z"/>
<path d="M1376 892 c-3 -5 -8 -28 -12 -51 -6 -37 -11 -43 -53 -62 -38 -17 -49
-18 -66 -8 -75 47 -71 46 -104 15 -37 -36 -38 -41 -7 -87 24 -35 24 -36 8 -83
-14 -39 -22 -48 -52 -56 -19 -6 -43 -10 -53 -10 -15 0 -18 -7 -15 -52 l3 -52
49 -11 c46 -9 51 -13 69 -58 l20 -47 -27 -40 c-14 -22 -26 -43 -26 -48 0 -5
14 -21 30 -37 l31 -30 49 28 c47 26 51 27 79 12 17 -8 36 -15 44 -15 9 0 18
-21 26 -55 l12 -55 49 0 49 0 11 53 c12 51 15 54 57 70 43 16 45 16 93 -11
l49 -27 32 31 31 32 -27 48 -27 49 20 46 c18 41 24 47 63 55 l44 9 3 53 c3 45
0 52 -15 52 -10 0 -34 5 -53 10 -29 8 -38 17 -51 52 -15 42 -15 45 10 90 l26
48 -33 32 -32 33 -48 -26 c-47 -26 -47 -26 -92 -9 -41 16 -45 21 -55 66 l-10
49 -47 3 c-25 2 -49 -1 -52 -6z m99 -286 c40 -17 75 -68 75 -111 0 -63 -63
-125 -127 -125 -59 0 -123 66 -123 127 0 33 36 86 71 105 41 22 59 22 104 4z"/>
<path d="M170 529 c0 -119 1 -126 30 -175 49 -86 173 -162 335 -205 114 -30
320 -37 440 -14 49 9 93 19 98 22 5 3 -3 18 -18 33 l-26 27 23 39 c23 39 26
46 30 79 3 16 -7 22 -57 35 -53 15 -60 20 -63 43 -3 22 -8 26 -25 23 -62 -13
-164 -15 -253 -6 -200 21 -359 80 -460 173 l-54 49 0 -123z m836 -244 c8 -20
-13 -45 -32 -38 -14 5 -19 34 -7 46 11 12 33 7 39 -8z"/>
</g>
</svg>
